# xmcd
#
# Track frame offsets:
#	150
#	22552
#	43132
#	64470
#	85342
#	109495
#	130785
#	149202
#	173090
#	197140
#	221125
#	250682
#	286757
#
# Disc length: 4424 seconds
#
# Revision: 3
# Processed by: cddbd v1.5.1PL0 Copyright (c) Steve Scherf et al.
# Submitted via: EasyCDDAExtractor 6.5.0.1
#
DISCID=c611460d
DTITLE=Human Resource - Dominator CD Single
DYEAR=1992
DGENRE=Other
TTITLE0=Dominator(Original Mix)
TTITLE1=Dominator(Beltram Mix)
TTITLE2=Dominator(Frank De Wulf Mix 1)
TTITLE3=Dominator(Frank De Wulf Mix 2)
TTITLE4=Dominator(Mental Speed Mix)
TTITLE5=Dominator(Human Remix)
TTITLE6=Dominator(Head Strong Mix)
TTITLE7=Dominator(The Glitch Relapse)
TTITLE8=Dominator(Dub Mix)
TTITLE9=Dominator(Dominator On Acid)
TTITLE10=Dominator(The Radikal Remix)
TTITLE11=Dominator(R And S Re-Remix)
TTITLE12=Dominator(R And S Mega Re-Remix)
EXTD=Radikal Records YEAR: 1992 ID3G: 12
EXTT0=
EXTT1=
EXTT2=
EXTT3=
EXTT4=
EXTT5=
EXTT6=
EXTT7=
EXTT8=
EXTT9=
EXTT10=
EXTT11=
EXTT12=
PLAYORDER=
